<svg xmlns="http://www.w3.org/2000/svg" xmlns:xlink="http://www.w3.org/1999/xlink" width="200" zoomAndPan="magnify" viewBox="0 0 150 149.999998" height="200" preserveAspectRatio="xMidYMid meet" version="1.0"><defs><clipPath id="f9afccc16d"><path d="M 0 1.132812 L 148.5 1.132812 L 148.5 149.632812 L 0 149.632812 Z M 0 1.132812 " clip-rule="nonzero"/></clipPath></defs><rect x="-15" width="180" fill="#ffffff" y="-15" height="179.999997" fill-opacity="1"/><rect x="-15" width="180" fill="#ffffff" y="-15" height="179.999997" fill-opacity="1"/><path fill="#00285a" d="M 115.15625 36.730469 L 33.707031 36.730469 C 32.980469 36.730469 32.261719 36.800781 31.550781 36.945312 C 30.839844 37.085938 30.148438 37.296875 29.480469 37.574219 C 28.808594 37.851562 28.171875 38.191406 27.570312 38.59375 C 26.964844 39 26.40625 39.457031 25.894531 39.96875 C 25.378906 40.484375 24.921875 41.042969 24.519531 41.644531 C 24.117188 42.246094 23.773438 42.886719 23.496094 43.554688 C 23.21875 44.226562 23.007812 44.917969 22.867188 45.628906 C 22.726562 46.339844 22.652344 47.058594 22.652344 47.785156 L 22.652344 103.34375 C 22.652344 104.066406 22.726562 104.785156 22.867188 105.5 C 23.007812 106.210938 23.21875 106.902344 23.496094 107.570312 C 23.773438 108.242188 24.117188 108.878906 24.519531 109.480469 C 24.921875 110.085938 25.378906 110.644531 25.894531 111.15625 C 26.40625 111.667969 26.964844 112.128906 27.570312 112.53125 C 28.171875 112.933594 28.808594 113.273438 29.480469 113.554688 C 30.148438 113.832031 30.839844 114.042969 31.550781 114.183594 C 32.261719 114.324219 32.980469 114.398438 33.707031 114.398438 L 115.15625 114.398438 C 115.882812 114.398438 116.601562 114.324219 117.3125 114.183594 C 118.023438 114.042969 118.714844 113.832031 119.382812 113.554688 C 120.054688 113.273438 120.691406 112.933594 121.292969 112.53125 C 121.898438 112.128906 122.457031 111.667969 122.96875 111.15625 C 123.484375 110.644531 123.941406 110.085938 124.34375 109.480469 C 124.746094 108.878906 125.089844 108.242188 125.367188 107.570312 C 125.644531 106.902344 125.855469 106.210938 125.996094 105.5 C 126.136719 104.785156 126.210938 104.066406 126.210938 103.34375 L 126.210938 47.785156 C 126.210938 47.058594 126.136719 46.339844 125.996094 45.628906 C 125.855469 44.917969 125.644531 44.226562 125.367188 43.554688 C 125.089844 42.886719 124.746094 42.25 124.34375 41.644531 C 123.941406 41.042969 123.484375 40.484375 122.96875 39.96875 C 122.457031 39.457031 121.898438 39 121.292969 38.59375 C 120.691406 38.191406 120.054688 37.851562 119.382812 37.574219 C 118.714844 37.296875 118.023438 37.085938 117.3125 36.945312 C 116.601562 36.800781 115.882812 36.730469 115.15625 36.730469 Z M 114.507812 43.203125 L 74.429688 74.683594 L 34.363281 43.203125 Z M 119.738281 103.34375 C 119.738281 103.644531 119.707031 103.941406 119.648438 104.234375 C 119.589844 104.53125 119.503906 104.816406 119.386719 105.09375 C 119.273438 105.375 119.132812 105.636719 118.964844 105.886719 C 118.796875 106.136719 118.609375 106.367188 118.394531 106.582031 C 118.183594 106.792969 117.949219 106.984375 117.699219 107.152344 C 117.449219 107.320312 117.1875 107.460938 116.910156 107.574219 C 116.628906 107.691406 116.34375 107.777344 116.050781 107.835938 C 115.753906 107.894531 115.457031 107.925781 115.15625 107.925781 L 33.707031 107.925781 C 33.40625 107.925781 33.109375 107.894531 32.8125 107.835938 C 32.519531 107.777344 32.234375 107.691406 31.953125 107.574219 C 31.675781 107.460938 31.414062 107.320312 31.164062 107.152344 C 30.914062 106.984375 30.679688 106.792969 30.46875 106.582031 C 30.253906 106.367188 30.066406 106.136719 29.898438 105.886719 C 29.730469 105.636719 29.589844 105.375 29.476562 105.09375 C 29.359375 104.816406 29.273438 104.53125 29.214844 104.234375 C 29.15625 103.941406 29.125 103.644531 29.125 103.34375 L 29.125 47.785156 C 29.125 47.636719 29.15625 47.496094 29.167969 47.351562 L 72.433594 81.332031 C 72.71875 81.554688 73.03125 81.726562 73.375 81.84375 C 73.714844 81.960938 74.070312 82.023438 74.433594 82.023438 C 74.792969 82.023438 75.148438 81.960938 75.488281 81.84375 C 75.832031 81.726562 76.144531 81.554688 76.429688 81.332031 L 119.695312 47.351562 C 119.695312 47.496094 119.738281 47.636719 119.738281 47.785156 Z M 119.738281 103.34375 " fill-opacity="1" fill-rule="nonzero"/><g clip-path="url(#f9afccc16d)"><path fill="#00285a" d="M 74.429688 1.132812 C 73.214844 1.132812 71.996094 1.160156 70.78125 1.222656 C 69.5625 1.28125 68.347656 1.371094 67.136719 1.488281 C 65.921875 1.609375 64.714844 1.757812 63.511719 1.9375 C 62.304688 2.117188 61.105469 2.324219 59.910156 2.5625 C 58.714844 2.800781 57.527344 3.066406 56.347656 3.363281 C 55.164062 3.660156 53.992188 3.984375 52.824219 4.335938 C 51.660156 4.691406 50.503906 5.074219 49.355469 5.484375 C 48.210938 5.894531 47.074219 6.332031 45.949219 6.796875 C 44.824219 7.261719 43.710938 7.757812 42.609375 8.277344 C 41.507812 8.796875 40.417969 9.347656 39.34375 9.921875 C 38.269531 10.496094 37.210938 11.09375 36.167969 11.722656 C 35.121094 12.347656 34.09375 13 33.078125 13.675781 C 32.066406 14.351562 31.070312 15.054688 30.09375 15.777344 C 29.113281 16.503906 28.15625 17.253906 27.210938 18.027344 C 26.269531 18.800781 25.347656 19.59375 24.445312 20.414062 C 23.542969 21.230469 22.660156 22.070312 21.800781 22.933594 C 20.9375 23.792969 20.097656 24.675781 19.28125 25.578125 C 18.464844 26.480469 17.667969 27.402344 16.894531 28.34375 C 16.121094 29.285156 15.375 30.246094 14.648438 31.222656 C 13.921875 32.203125 13.222656 33.199219 12.542969 34.210938 C 11.867188 35.222656 11.214844 36.253906 10.589844 37.296875 C 9.964844 38.34375 9.363281 39.402344 8.789062 40.476562 C 8.214844 41.550781 7.667969 42.636719 7.144531 43.738281 C 6.625 44.839844 6.132812 45.953125 5.664062 47.078125 C 5.199219 48.203125 4.761719 49.339844 4.351562 50.488281 C 3.941406 51.636719 3.558594 52.792969 3.203125 53.957031 C 2.851562 55.121094 2.527344 56.296875 2.230469 57.476562 C 1.933594 58.660156 1.667969 59.847656 1.429688 61.042969 C 1.191406 62.238281 0.984375 63.4375 0.804688 64.640625 C 0.625 65.847656 0.476562 67.054688 0.359375 68.269531 C 0.238281 69.480469 0.148438 70.695312 0.0898438 71.910156 C 0.03125 73.128906 0 74.34375 0 75.5625 C 0 76.78125 0.03125 78 0.0898438 79.214844 C 0.148438 80.433594 0.238281 81.648438 0.359375 82.859375 C 0.476562 84.070312 0.625 85.28125 0.804688 86.484375 C 0.984375 87.691406 1.191406 88.890625 1.429688 90.085938 C 1.667969 91.277344 1.933594 92.46875 2.230469 93.648438 C 2.527344 94.832031 2.851562 96.003906 3.203125 97.167969 C 3.558594 98.335938 3.941406 99.492188 4.351562 100.636719 C 4.761719 101.785156 5.199219 102.921875 5.664062 104.046875 C 6.132812 105.171875 6.625 106.285156 7.144531 107.386719 C 7.667969 108.488281 8.214844 109.574219 8.789062 110.648438 C 9.363281 111.722656 9.964844 112.785156 10.589844 113.828125 C 11.214844 114.875 11.867188 115.902344 12.542969 116.914062 C 13.222656 117.929688 13.921875 118.921875 14.648438 119.902344 C 15.375 120.878906 16.121094 121.839844 16.894531 122.78125 C 17.667969 123.722656 18.464844 124.644531 19.28125 125.546875 C 20.097656 126.449219 20.9375 127.332031 21.800781 128.195312 C 22.660156 129.054688 23.542969 129.894531 24.445312 130.714844 C 25.347656 131.53125 26.269531 132.328125 27.210938 133.101562 C 28.15625 133.871094 29.113281 134.621094 30.09375 135.347656 C 31.070312 136.074219 32.066406 136.773438 33.078125 137.449219 C 34.09375 138.128906 35.121094 138.777344 36.167969 139.40625 C 37.210938 140.03125 38.269531 140.632812 39.34375 141.207031 C 40.417969 141.78125 41.507812 142.328125 42.609375 142.847656 C 43.710938 143.371094 44.824219 143.863281 45.949219 144.328125 C 47.074219 144.796875 48.210938 145.234375 49.355469 145.644531 C 50.503906 146.054688 51.660156 146.4375 52.824219 146.789062 C 53.992188 147.144531 55.164062 147.46875 56.347656 147.765625 C 57.527344 148.058594 58.714844 148.328125 59.910156 148.566406 C 61.105469 148.800781 62.304688 149.011719 63.511719 149.1875 C 64.714844 149.367188 65.921875 149.515625 67.136719 149.636719 C 68.347656 149.757812 69.5625 149.84375 70.78125 149.90625 C 71.996094 149.964844 73.214844 149.996094 74.429688 149.996094 C 75.648438 149.996094 76.867188 149.964844 78.082031 149.90625 C 79.300781 149.84375 80.515625 149.757812 81.726562 149.636719 C 82.941406 149.515625 84.148438 149.367188 85.351562 149.1875 C 86.558594 149.011719 87.757812 148.800781 88.953125 148.566406 C 90.148438 148.328125 91.335938 148.058594 92.515625 147.765625 C 93.699219 147.46875 94.871094 147.144531 96.039062 146.789062 C 97.203125 146.4375 98.359375 146.054688 99.507812 145.644531 C 100.652344 145.234375 101.789062 144.796875 102.914062 144.328125 C 104.039062 143.863281 105.152344 143.371094 106.253906 142.847656 C 107.355469 142.328125 108.445312 141.78125 109.519531 141.207031 C 110.59375 140.632812 111.652344 140.03125 112.695312 139.40625 C 113.742188 138.777344 114.769531 138.128906 115.785156 137.449219 C 116.796875 136.773438 117.792969 136.074219 118.769531 135.347656 C 119.75 134.621094 120.707031 133.871094 121.652344 133.101562 C 122.59375 132.328125 123.515625 131.53125 124.417969 130.714844 C 125.320312 129.894531 126.203125 129.054688 127.0625 128.195312 C 127.925781 127.332031 128.765625 126.449219 129.582031 125.546875 C 130.398438 124.644531 131.195312 123.722656 131.96875 122.78125 C 132.742188 121.839844 133.488281 120.878906 134.214844 119.902344 C 134.941406 118.921875 135.640625 117.929688 136.320312 116.914062 C 136.996094 115.902344 137.648438 114.875 138.273438 113.828125 C 138.898438 112.785156 139.5 111.722656 140.074219 110.648438 C 140.648438 109.574219 141.195312 108.488281 141.71875 107.386719 C 142.238281 106.285156 142.730469 105.171875 143.199219 104.046875 C 143.664062 102.921875 144.101562 101.785156 144.511719 100.636719 C 144.921875 99.492188 145.304688 98.335938 145.660156 97.167969 C 146.011719 96.003906 146.335938 94.832031 146.632812 93.648438 C 146.929688 92.46875 147.195312 91.277344 147.433594 90.085938 C 147.671875 88.890625 147.878906 87.691406 148.058594 86.484375 C 148.238281 85.28125 148.386719 84.070312 148.503906 82.859375 C 148.625 81.648438 148.714844 80.433594 148.773438 79.214844 C 148.832031 78 148.863281 76.78125 148.863281 75.5625 C 148.863281 74.34375 148.832031 73.128906 148.769531 71.914062 C 148.707031 70.695312 148.617188 69.480469 148.496094 68.269531 C 148.375 67.058594 148.226562 65.851562 148.046875 64.644531 C 147.867188 63.441406 147.65625 62.242188 147.417969 61.046875 C 147.179688 59.855469 146.914062 58.667969 146.617188 57.484375 C 146.320312 56.304688 145.992188 55.132812 145.640625 53.964844 C 145.285156 52.800781 144.902344 51.644531 144.492188 50.5 C 144.082031 49.351562 143.640625 48.21875 143.175781 47.09375 C 142.707031 45.96875 142.214844 44.855469 141.691406 43.753906 C 141.171875 42.652344 140.625 41.566406 140.050781 40.492188 C 139.476562 39.417969 138.875 38.359375 138.25 37.316406 C 137.621094 36.273438 136.96875 35.242188 136.292969 34.230469 C 135.617188 33.21875 134.914062 32.222656 134.191406 31.246094 C 133.464844 30.269531 132.714844 29.308594 131.941406 28.367188 C 131.167969 27.425781 130.375 26.503906 129.554688 25.601562 C 128.738281 24.699219 127.898438 23.816406 127.039062 22.957031 C 126.175781 22.097656 125.296875 21.257812 124.394531 20.4375 C 123.492188 19.621094 122.570312 18.824219 121.628906 18.050781 C 120.6875 17.28125 119.726562 16.53125 118.75 15.804688 C 117.769531 15.078125 116.777344 14.378906 115.765625 13.703125 C 114.75 13.023438 113.722656 12.371094 112.679688 11.746094 C 111.632812 11.121094 110.574219 10.519531 109.5 9.945312 C 108.429688 9.371094 107.339844 8.824219 106.242188 8.300781 C 105.140625 7.78125 104.027344 7.285156 102.902344 6.820312 C 101.777344 6.351562 100.640625 5.914062 99.496094 5.503906 C 98.347656 5.09375 97.195312 4.710938 96.027344 4.355469 C 94.863281 4 93.691406 3.675781 92.507812 3.378906 C 91.328125 3.082031 90.140625 2.8125 88.945312 2.574219 C 87.753906 2.335938 86.554688 2.128906 85.347656 1.949219 C 84.144531 1.769531 82.9375 1.617188 81.722656 1.496094 C 80.511719 1.378906 79.296875 1.285156 78.082031 1.226562 C 76.867188 1.164062 75.648438 1.132812 74.429688 1.132812 Z M 74.429688 143.523438 C 73.320312 143.523438 72.207031 143.496094 71.097656 143.441406 C 69.984375 143.386719 68.878906 143.304688 67.769531 143.195312 C 66.664062 143.085938 65.558594 142.949219 64.460938 142.785156 C 63.359375 142.625 62.265625 142.433594 61.171875 142.214844 C 60.082031 142 58.996094 141.757812 57.917969 141.484375 C 56.839844 141.214844 55.769531 140.917969 54.703125 140.597656 C 53.640625 140.273438 52.585938 139.925781 51.535156 139.550781 C 50.488281 139.175781 49.453125 138.773438 48.425781 138.347656 C 47.398438 137.925781 46.378906 137.472656 45.375 136.996094 C 44.371094 136.523438 43.375 136.023438 42.394531 135.5 C 41.414062 134.972656 40.449219 134.425781 39.492188 133.855469 C 38.539062 133.28125 37.601562 132.6875 36.675781 132.070312 C 35.75 131.453125 34.839844 130.8125 33.949219 130.148438 C 33.054688 129.484375 32.179688 128.800781 31.320312 128.097656 C 30.457031 127.390625 29.617188 126.664062 28.792969 125.917969 C 27.96875 125.171875 27.164062 124.402344 26.378906 123.617188 C 25.589844 122.832031 24.824219 122.027344 24.078125 121.203125 C 23.332031 120.378906 22.605469 119.535156 21.898438 118.675781 C 21.191406 117.816406 20.507812 116.941406 19.847656 116.046875 C 19.183594 115.152344 18.542969 114.246094 17.925781 113.320312 C 17.308594 112.394531 16.710938 111.457031 16.140625 110.5 C 15.570312 109.546875 15.019531 108.578125 14.496094 107.597656 C 13.972656 106.617188 13.472656 105.625 12.996094 104.621094 C 12.523438 103.613281 12.070312 102.597656 11.644531 101.570312 C 11.21875 100.542969 10.820312 99.503906 10.445312 98.457031 C 10.070312 97.410156 9.722656 96.355469 9.398438 95.289062 C 9.074219 94.226562 8.777344 93.15625 8.507812 92.074219 C 8.238281 90.996094 7.996094 89.914062 7.777344 88.820312 C 7.5625 87.730469 7.371094 86.636719 7.207031 85.535156 C 7.042969 84.433594 6.910156 83.332031 6.800781 82.222656 C 6.691406 81.117188 6.609375 80.007812 6.554688 78.898438 C 6.5 77.785156 6.472656 76.675781 6.472656 75.5625 C 6.472656 74.449219 6.5 73.339844 6.554688 72.230469 C 6.609375 71.117188 6.691406 70.007812 6.800781 68.902344 C 6.910156 67.796875 7.042969 66.691406 7.207031 65.589844 C 7.371094 64.492188 7.5625 63.394531 7.777344 62.304688 C 7.996094 61.214844 8.238281 60.128906 8.507812 59.050781 C 8.777344 57.972656 9.074219 56.898438 9.398438 55.835938 C 9.722656 54.769531 10.070312 53.714844 10.445312 52.667969 C 10.820312 51.621094 11.21875 50.582031 11.644531 49.554688 C 12.070312 48.527344 12.523438 47.511719 12.996094 46.507812 C 13.472656 45.5 13.972656 44.507812 14.496094 43.527344 C 15.019531 42.546875 15.570312 41.578125 16.140625 40.625 C 16.710938 39.671875 17.308594 38.730469 17.925781 37.808594 C 18.542969 36.882812 19.183594 35.972656 19.847656 35.078125 C 20.507812 34.1875 21.191406 33.308594 21.898438 32.449219 C 22.605469 31.589844 23.332031 30.75 24.078125 29.925781 C 24.824219 29.101562 25.589844 28.296875 26.378906 27.507812 C 27.164062 26.722656 27.96875 25.957031 28.792969 25.207031 C 29.617188 24.460938 30.457031 23.734375 31.320312 23.03125 C 32.179688 22.324219 33.054688 21.640625 33.949219 20.976562 C 34.839844 20.316406 35.75 19.675781 36.675781 19.058594 C 37.601562 18.4375 38.539062 17.84375 39.492188 17.273438 C 40.449219 16.699219 41.414062 16.152344 42.394531 15.628906 C 43.375 15.105469 44.371094 14.605469 45.375 14.128906 C 46.378906 13.652344 47.398438 13.203125 48.425781 12.777344 C 49.453125 12.351562 50.488281 11.953125 51.535156 11.578125 C 52.585938 11.203125 53.640625 10.851562 54.703125 10.53125 C 55.769531 10.207031 56.839844 9.910156 57.917969 9.640625 C 58.996094 9.371094 60.082031 9.125 61.171875 8.910156 C 62.265625 8.691406 63.359375 8.503906 64.460938 8.339844 C 65.558594 8.175781 66.664062 8.039062 67.769531 7.929688 C 68.878906 7.820312 69.984375 7.742188 71.097656 7.6875 C 72.207031 7.632812 73.320312 7.605469 74.429688 7.605469 C 75.542969 7.605469 76.65625 7.632812 77.765625 7.6875 C 78.878906 7.742188 79.984375 7.820312 81.09375 7.929688 C 82.199219 8.039062 83.304688 8.175781 84.402344 8.339844 C 85.503906 8.503906 86.597656 8.691406 87.691406 8.910156 C 88.78125 9.125 89.867188 9.371094 90.945312 9.640625 C 92.023438 9.910156 93.09375 10.207031 94.160156 10.53125 C 95.222656 10.851562 96.277344 11.203125 97.328125 11.578125 C 98.375 11.953125 99.410156 12.351562 100.4375 12.777344 C 101.464844 13.203125 102.484375 13.652344 103.488281 14.128906 C 104.492188 14.605469 105.488281 15.105469 106.46875 15.628906 C 107.449219 16.152344 108.414062 16.699219 109.371094 17.273438 C 110.324219 17.84375 111.261719 18.4375 112.1875 19.058594 C 113.113281 19.675781 114.023438 20.316406 114.914062 20.976562 C 115.808594 21.640625 116.683594 22.324219 117.542969 23.03125 C 118.40625 23.734375 119.246094 24.460938 120.070312 25.207031 C 120.894531 25.957031 121.699219 26.722656 122.484375 27.507812 C 123.273438 28.296875 124.039062 29.101562 124.785156 29.925781 C 125.53125 30.75 126.257812 31.589844 126.964844 32.449219 C 127.671875 33.308594 128.355469 34.1875 129.015625 35.078125 C 129.679688 35.972656 130.320312 36.882812 130.9375 37.808594 C 131.554688 38.730469 132.152344 39.671875 132.722656 40.625 C 133.292969 41.578125 133.84375 42.546875 134.367188 43.527344 C 134.890625 44.507812 135.390625 45.5 135.867188 46.507812 C 136.339844 47.511719 136.792969 48.527344 137.21875 49.554688 C 137.644531 50.582031 138.042969 51.621094 138.417969 52.667969 C 138.792969 53.714844 139.140625 54.769531 139.464844 55.835938 C 139.789062 56.898438 140.085938 57.972656 140.355469 59.050781 C 140.625 60.128906 140.867188 61.214844 141.085938 62.304688 C 141.300781 63.394531 141.492188 64.492188 141.65625 65.589844 C 141.820312 66.691406 141.953125 67.796875 142.0625 68.902344 C 142.171875 70.007812 142.253906 71.117188 142.308594 72.230469 C 142.363281 73.339844 142.390625 74.449219 142.390625 75.5625 C 142.390625 76.675781 142.359375 77.785156 142.304688 78.898438 C 142.25 80.007812 142.167969 81.117188 142.058594 82.222656 C 141.945312 83.328125 141.808594 84.429688 141.644531 85.53125 C 141.480469 86.632812 141.289062 87.726562 141.074219 88.816406 C 140.855469 89.90625 140.609375 90.992188 140.339844 92.070312 C 140.070312 93.148438 139.769531 94.21875 139.449219 95.28125 C 139.125 96.347656 138.773438 97.402344 138.398438 98.449219 C 138.023438 99.496094 137.625 100.53125 137.199219 101.558594 C 136.773438 102.585938 136.320312 103.601562 135.84375 104.605469 C 135.371094 105.613281 134.867188 106.605469 134.34375 107.585938 C 133.820312 108.566406 133.273438 109.53125 132.699219 110.484375 C 132.128906 111.4375 131.53125 112.378906 130.914062 113.300781 C 130.296875 114.226562 129.65625 115.136719 128.996094 116.027344 C 128.332031 116.921875 127.648438 117.796875 126.941406 118.65625 C 126.238281 119.515625 125.511719 120.355469 124.765625 121.179688 C 124.015625 122.003906 123.25 122.808594 122.464844 123.597656 C 121.679688 124.382812 120.875 125.148438 120.050781 125.894531 C 119.226562 126.640625 118.382812 127.367188 117.523438 128.074219 C 116.664062 128.78125 115.789062 129.464844 114.894531 130.125 C 114.003906 130.789062 113.09375 131.429688 112.171875 132.046875 C 111.246094 132.664062 110.308594 133.257812 109.355469 133.832031 C 108.398438 134.402344 107.433594 134.953125 106.453125 135.476562 C 105.472656 136 104.480469 136.5 103.476562 136.976562 C 102.46875 137.453125 101.453125 137.902344 100.425781 138.328125 C 99.398438 138.753906 98.363281 139.15625 97.316406 139.53125 C 96.269531 139.90625 95.214844 140.257812 94.152344 140.578125 C 93.085938 140.902344 92.015625 141.199219 90.9375 141.472656 C 89.859375 141.742188 88.773438 141.988281 87.683594 142.203125 C 86.59375 142.421875 85.5 142.613281 84.398438 142.777344 C 83.300781 142.941406 82.195312 143.078125 81.089844 143.1875 C 79.984375 143.296875 78.875 143.382812 77.765625 143.4375 C 76.65625 143.492188 75.542969 143.519531 74.429688 143.523438 Z M 74.429688 143.523438 " fill-opacity="1" fill-rule="nonzero"/></g></svg>