<svg xmlns="http://www.w3.org/2000/svg" xmlns:xlink="http://www.w3.org/1999/xlink" width="200" zoomAndPan="magnify" viewBox="0 0 150 149.999998" height="200" preserveAspectRatio="xMidYMid meet" version="1.0"><rect x="-15" width="180" fill="#ffffff" y="-15" height="179.999997" fill-opacity="1"/><rect x="-15" width="180" fill="#ffffff" y="-15" height="179.999997" fill-opacity="1"/><path fill="#00285a" d="M 75 0 C 33.578125 0 0 33.578125 0 75 C 0 116.421875 33.578125 150 75 150 C 116.421875 150 150 116.421875 150 75 C 149.957031 33.59375 116.40625 0.0429688 75 0 Z M 125.253906 121.449219 C 119.457031 117.886719 113.285156 114.972656 106.851562 112.753906 C 111.320312 101.785156 113.761719 90.101562 114.0625 78.261719 L 143.394531 78.261719 C 142.636719 94.34375 136.210938 109.644531 125.253906 121.449219 Z M 6.605469 78.261719 L 35.9375 78.261719 C 36.238281 90.101562 38.679688 101.785156 43.148438 112.753906 C 36.714844 114.976562 30.542969 117.886719 24.742188 121.445312 C 13.789062 109.640625 7.363281 94.34375 6.605469 78.261719 Z M 24.746094 28.546875 C 30.546875 32.101562 36.71875 35.011719 43.148438 37.234375 C 38.679688 48.207031 36.238281 59.898438 35.9375 71.738281 L 6.605469 71.738281 C 7.363281 55.652344 13.789062 40.351562 24.746094 28.546875 Z M 71.738281 35.765625 C 65.199219 35.582031 58.695312 34.703125 52.339844 33.136719 C 57.195312 23.574219 63.773438 14.992188 71.738281 7.8125 Z M 71.738281 42.285156 L 71.738281 71.738281 L 42.460938 71.738281 C 42.789062 60.535156 45.183594 49.492188 49.527344 39.160156 C 56.789062 41.046875 64.238281 42.097656 71.738281 42.285156 Z M 71.738281 78.261719 L 71.738281 107.714844 C 64.234375 107.898438 56.769531 108.945312 49.503906 110.832031 C 45.175781 100.496094 42.792969 89.453125 42.472656 78.253906 Z M 71.738281 114.234375 L 71.738281 142.191406 C 63.746094 135.027344 57.160156 126.4375 52.308594 116.863281 C 58.671875 115.296875 65.1875 114.414062 71.738281 114.234375 Z M 78.261719 114.234375 C 84.800781 114.414062 91.300781 115.292969 97.65625 116.851562 C 92.796875 126.410156 86.222656 134.992188 78.261719 142.164062 Z M 78.261719 107.714844 L 78.261719 78.261719 L 107.539062 78.261719 C 107.210938 89.457031 104.8125 100.496094 100.46875 110.820312 C 93.207031 108.941406 85.757812 107.898438 78.261719 107.714844 Z M 78.261719 71.738281 L 78.261719 42.285156 C 85.757812 42.097656 93.210938 41.054688 100.46875 39.167969 C 104.8125 49.5 107.210938 60.542969 107.539062 71.746094 Z M 78.261719 35.765625 L 78.261719 7.820312 C 86.226562 15 92.800781 23.585938 97.65625 33.144531 C 91.304688 34.707031 84.800781 35.585938 78.261719 35.765625 Z M 87.65625 7.710938 C 99.835938 10.007812 111.164062 15.574219 120.421875 23.816406 C 115.269531 26.855469 109.816406 29.347656 104.148438 31.253906 C 99.890625 22.609375 94.328125 14.667969 87.65625 7.710938 Z M 45.847656 31.25 C 40.183594 29.339844 34.730469 26.851562 29.574219 23.820312 C 38.832031 15.578125 50.160156 10.011719 62.34375 7.714844 C 55.671875 14.667969 50.105469 22.601562 45.847656 31.25 Z M 45.847656 118.742188 C 50.109375 127.390625 55.679688 135.332031 62.355469 142.289062 C 50.164062 139.996094 38.828125 134.421875 29.566406 126.171875 C 34.722656 123.136719 40.179688 120.648438 45.847656 118.742188 Z M 104.148438 118.742188 C 109.820312 120.648438 115.273438 123.144531 120.429688 126.179688 C 111.160156 134.429688 99.824219 140 87.628906 142.292969 C 94.316406 135.335938 99.886719 127.390625 104.148438 118.738281 Z M 114.0625 71.742188 C 113.761719 59.898438 111.320312 48.207031 106.847656 37.238281 C 113.28125 35.019531 119.449219 32.101562 125.246094 28.546875 C 136.207031 40.351562 142.636719 55.652344 143.394531 71.742188 Z M 114.0625 71.742188 " fill-opacity="1" fill-rule="nonzero"/></svg>