<svg xmlns="http://www.w3.org/2000/svg" xmlns:xlink="http://www.w3.org/1999/xlink" width="200" zoomAndPan="magnify" viewBox="0 0 150 149.999998" height="200" preserveAspectRatio="xMidYMid meet" version="1.0"><rect x="-15" width="180" fill="#ffffff" y="-15" height="179.999997" fill-opacity="1"/><rect x="-15" width="180" fill="#ffffff" y="-15" height="179.999997" fill-opacity="1"/><path fill="#00285a" d="M 74.761719 0.136719 C 33.214844 0.277344 0.0117188 34.058594 0.554688 75.597656 C 0.601562 79.78125 1.003906 83.929688 1.753906 88.042969 C 2.503906 92.15625 3.597656 96.179688 5.027344 100.105469 C 6.460938 104.035156 8.210938 107.816406 10.28125 111.449219 C 12.351562 115.082031 14.714844 118.515625 17.367188 121.75 C 17.785156 122.261719 18.117188 122.824219 18.367188 123.4375 C 18.617188 124.050781 18.769531 124.6875 18.828125 125.347656 C 18.886719 126.003906 18.84375 126.65625 18.707031 127.304688 C 18.566406 127.953125 18.335938 128.5625 18.011719 129.140625 L 11.597656 140.636719 C 9.820312 143.824219 12.71875 147.589844 16.253906 146.691406 L 37.980469 141.160156 C 39.546875 140.761719 41.054688 140.917969 42.507812 141.625 C 47.3125 143.957031 52.308594 145.75 57.5 147.003906 C 62.695312 148.257812 67.960938 148.941406 73.300781 149.054688 C 115.070312 150 149.355469 116.625 149.484375 74.84375 C 149.613281 33.519531 116.085938 -0.00390625 74.761719 0.136719 Z M 75.015625 139.898438 C 73.949219 139.898438 72.878906 139.875 71.8125 139.820312 C 70.746094 139.769531 69.679688 139.691406 68.617188 139.585938 C 67.554688 139.480469 66.492188 139.351562 65.4375 139.191406 C 64.378906 139.035156 63.328125 138.855469 62.277344 138.644531 C 61.230469 138.4375 60.1875 138.203125 59.152344 137.941406 C 58.113281 137.683594 57.085938 137.398438 56.0625 137.089844 C 55.039062 136.777344 54.027344 136.441406 53.019531 136.082031 C 52.015625 135.722656 51.015625 135.339844 50.03125 134.929688 C 49.042969 134.519531 48.066406 134.089844 47.101562 133.632812 C 46.132812 133.175781 45.179688 132.695312 44.238281 132.191406 C 43.296875 131.6875 42.367188 131.160156 41.449219 130.609375 C 40.53125 130.0625 39.628906 129.488281 38.742188 128.894531 C 37.851562 128.300781 36.980469 127.6875 36.121094 127.050781 C 35.261719 126.414062 34.421875 125.757812 33.59375 125.078125 C 32.769531 124.402344 31.960938 123.703125 31.167969 122.984375 C 30.375 122.269531 29.601562 121.53125 28.847656 120.777344 C 28.089844 120.019531 27.355469 119.246094 26.636719 118.453125 C 25.917969 117.664062 25.222656 116.855469 24.542969 116.027344 C 23.867188 115.203125 23.207031 114.359375 22.570312 113.5 C 21.9375 112.644531 21.320312 111.769531 20.726562 110.882812 C 20.132812 109.992188 19.5625 109.089844 19.011719 108.175781 C 18.464844 107.257812 17.9375 106.328125 17.433594 105.386719 C 16.929688 104.441406 16.449219 103.488281 15.992188 102.523438 C 15.535156 101.558594 15.101562 100.582031 14.691406 99.59375 C 14.285156 98.605469 13.898438 97.609375 13.539062 96.601562 C 13.179688 95.597656 12.84375 94.582031 12.535156 93.558594 C 12.222656 92.539062 11.9375 91.507812 11.679688 90.472656 C 11.421875 89.433594 11.1875 88.390625 10.976562 87.34375 C 10.769531 86.296875 10.585938 85.242188 10.429688 84.1875 C 10.273438 83.128906 10.140625 82.070312 10.039062 81.007812 C 9.933594 79.941406 9.855469 78.878906 9.800781 77.808594 C 9.75 76.742188 9.722656 75.675781 9.722656 74.605469 C 9.722656 38.546875 38.957031 9.3125 75.015625 9.3125 C 110.9375 9.3125 140.082031 38.320312 140.308594 74.1875 C 140.535156 110.175781 111.007812 139.898438 75.015625 139.898438 Z M 75.015625 139.898438 " fill-opacity="1" fill-rule="nonzero"/><path fill="#00285a" d="M 63.347656 42.863281 L 63.375 42.921875 L 67.269531 50.644531 C 67.691406 51.480469 67.972656 52.363281 68.105469 53.289062 C 68.242188 54.214844 68.226562 55.140625 68.0625 56.0625 C 67.898438 56.984375 67.589844 57.855469 67.140625 58.679688 C 66.695312 59.5 66.128906 60.230469 65.441406 60.871094 C 64.757812 61.503906 64.195312 62.226562 63.746094 63.042969 C 63.296875 63.859375 62.992188 64.726562 62.824219 65.640625 C 62.65625 66.558594 62.636719 67.476562 62.765625 68.398438 C 62.894531 69.320312 63.167969 70.199219 63.578125 71.03125 C 65.917969 75.726562 69.96875 82.195312 76.148438 86.867188 C 76.839844 87.390625 77.597656 87.804688 78.414062 88.101562 C 79.230469 88.402344 80.074219 88.574219 80.941406 88.617188 C 81.808594 88.664062 82.664062 88.582031 83.507812 88.367188 C 84.351562 88.15625 85.148438 87.824219 85.890625 87.375 L 88.398438 85.847656 C 89.539062 85.15625 90.773438 84.746094 92.101562 84.625 C 93.429688 84.503906 94.71875 84.675781 95.964844 85.152344 L 105.933594 88.941406 C 106.464844 89.144531 106.96875 89.394531 107.449219 89.695312 C 107.933594 89.996094 108.378906 90.34375 108.792969 90.734375 C 109.207031 91.121094 109.578125 91.546875 109.90625 92.011719 C 110.234375 92.472656 110.515625 92.964844 110.75 93.484375 C 110.980469 94 111.160156 94.535156 111.289062 95.089844 C 111.414062 95.644531 111.488281 96.203125 111.503906 96.769531 C 111.519531 97.339844 111.480469 97.902344 111.386719 98.460938 C 111.292969 99.023438 111.144531 99.566406 110.945312 100.097656 C 110.828125 100.402344 110.695312 100.699219 110.542969 100.988281 L 107.78125 106.34375 C 107.558594 106.777344 107.300781 107.1875 107.007812 107.578125 C 106.714844 107.96875 106.390625 108.328125 106.035156 108.664062 C 105.683594 109 105.300781 109.300781 104.898438 109.570312 C 104.492188 109.84375 104.066406 110.078125 103.621094 110.277344 C 103.175781 110.472656 102.71875 110.632812 102.246094 110.753906 C 101.773438 110.875 101.292969 110.957031 100.808594 110.996094 C 100.324219 111.039062 99.835938 111.035156 99.351562 110.996094 C 98.867188 110.953125 98.386719 110.871094 97.917969 110.75 C 82.261719 106.699219 44.945312 92.617188 41.941406 50.042969 C 41.882812 49.199219 41.945312 48.363281 42.128906 47.535156 C 42.316406 46.710938 42.617188 45.925781 43.03125 45.1875 C 43.445312 44.449219 43.960938 43.789062 44.570312 43.199219 C 45.179688 42.613281 45.859375 42.125 46.613281 41.738281 L 51.699219 39.125 C 52.203125 38.867188 52.730469 38.65625 53.277344 38.5 C 53.820312 38.34375 54.378906 38.242188 54.945312 38.195312 C 55.511719 38.148438 56.074219 38.160156 56.640625 38.222656 C 57.203125 38.289062 57.757812 38.40625 58.296875 38.582031 C 58.835938 38.753906 59.355469 38.980469 59.851562 39.253906 C 60.347656 39.53125 60.8125 39.851562 61.246094 40.21875 C 61.679688 40.585938 62.074219 40.992188 62.425781 41.4375 C 62.78125 41.882812 63.085938 42.355469 63.347656 42.863281 Z M 63.347656 42.863281 " fill-opacity="1" fill-rule="nonzero"/></svg>